<svg width="32" height="29" viewBox="0 0 32 29" fill="none" xmlns="http://www.w3.org/2000/svg">
<path d="M29.1336 10H24.125L17 0.5C16.8836 0.344755 16.7326 0.218751 16.559 0.131966C16.3855 0.0451812 16.1941 0 16 0C15.8059 0 15.6146 0.0451812 15.441 0.131966C15.2674 0.218751 15.1164 0.344755 15 0.5L7.87501 10H2.86641C2.19264 9.99896 1.54596 10.2652 1.06822 10.7403C0.590471 11.2154 0.320665 11.8606 0.317976 12.5344C0.316521 12.7726 0.351025 13.0096 0.42032 13.2375L4.03516 25.9828C4.27022 26.8135 4.77013 27.5447 5.45887 28.0652C6.14761 28.5857 6.98749 28.867 7.85079 28.8664H24.1492C25.0126 28.8637 25.8519 28.5818 26.5419 28.0628C27.2319 27.5438 27.7354 26.8155 27.9773 25.9867L31.5969 13.2242C31.6136 13.1638 31.6256 13.1021 31.6328 13.0398L31.6742 12.6547C31.6789 12.6145 31.6813 12.5741 31.6813 12.5336C31.6784 11.8601 31.4086 11.2152 30.931 10.7403C30.4535 10.2654 29.8071 9.99917 29.1336 10ZM16 3.33359L21 10H11L16 3.33359ZM16 22.4742C15.4181 22.4714 14.85 22.2963 14.3675 21.971C13.885 21.6457 13.5097 21.1847 13.2889 20.6463C13.0682 20.1079 13.0118 19.5161 13.1271 18.9457C13.2423 18.3753 13.5239 17.8518 13.9364 17.4413C14.3488 17.0308 14.8737 16.7517 15.4446 16.6392C16.0156 16.5267 16.607 16.5858 17.1444 16.8092C17.6818 17.0325 18.1409 17.41 18.464 17.894C18.787 18.3781 18.9594 18.947 18.9594 19.5289C18.955 20.3109 18.6413 21.0593 18.0868 21.6106C17.5322 22.1619 16.782 22.4713 16 22.4711V22.4742Z" fill="white"/>
</svg>
