<svg width="29" height="50" viewBox="0 0 29 50" fill="none" xmlns="http://www.w3.org/2000/svg">
<path d="M17.627 50H9.6199C8.28247 50 7.19452 48.912 7.19452 47.5746V29.5143H2.52304C1.18561 29.5143 0.0976562 28.426 0.0976562 27.0889V19.3501C0.0976562 18.0126 1.18561 16.9247 2.52304 16.9247H7.19452V13.0493C7.19452 9.20677 8.40111 5.93758 10.6834 3.59573C12.9761 1.24321 16.18 0 19.949 0L26.0555 0.00991816C27.3907 0.012207 28.4767 1.10016 28.4767 2.4353V9.62067C28.4767 10.9581 27.3891 12.0461 26.0521 12.0461L21.9406 12.0476C20.6867 12.0476 20.3674 12.299 20.2991 12.376C20.1866 12.5038 20.0527 12.8651 20.0527 13.8626V16.9243H25.7431C26.1715 16.9243 26.5865 17.03 26.9432 17.2291C27.7126 17.659 28.191 18.4719 28.191 19.3504L28.1879 27.0893C28.1879 28.426 27.1 29.5139 25.7626 29.5139H20.0527V47.5746C20.0527 48.912 18.9644 50 17.627 50ZM10.1257 47.0688H17.1211V28.2021C17.1211 27.309 17.8478 26.5827 18.7405 26.5827H25.2567L25.2594 19.8559H18.7401C17.8474 19.8559 17.1211 19.1296 17.1211 18.2365V13.8626C17.1211 12.7174 17.2375 11.4151 18.1019 10.4362C19.1463 9.25293 20.7924 9.11636 21.9398 9.11636L25.5455 9.11484V2.94037L19.9467 2.93121C13.8897 2.93121 10.1257 6.80847 10.1257 13.0493V18.2365C10.1257 19.1292 9.39941 19.8559 8.50677 19.8559H3.02887V26.5827H8.50677C9.39941 26.5827 10.1257 27.309 10.1257 28.2021V47.0688ZM26.0498 2.94113H26.0502H26.0498Z" fill="white"/>
</svg>
