<svg width="50" height="50" viewBox="0 0 50 50" fill="none" xmlns="http://www.w3.org/2000/svg">
<path d="M36.2013 0H13.7978C6.1897 0 0 6.19 0 13.7981V36.2016C0 43.81 6.1897 49.9997 13.7978 49.9997H36.2013C43.81 49.9997 49.9997 43.8097 49.9997 36.2016V13.7981C50 6.19 43.81 0 36.2013 0ZM45.5638 36.2016C45.5638 41.3639 41.3639 45.5635 36.2016 45.5635H13.7978C8.63583 45.5638 4.43622 41.3639 4.43622 36.2016V13.7981C4.43622 8.63613 8.63583 4.43622 13.7978 4.43622H36.2013C41.3636 4.43622 45.5635 8.63613 45.5635 13.7981V36.2016H45.5638Z" fill="white"/>
<path d="M24.9998 12.1167C17.8957 12.1167 12.1161 17.8962 12.1161 25.0004C12.1161 32.1042 17.8957 37.8834 24.9998 37.8834C32.104 37.8834 37.8835 32.1042 37.8835 25.0004C37.8835 17.8962 32.104 12.1167 24.9998 12.1167ZM24.9998 33.4469C20.3421 33.4469 16.5524 29.6578 16.5524 25.0001C16.5524 20.342 20.3418 16.5526 24.9998 16.5526C29.6578 16.5526 33.4473 20.342 33.4473 25.0001C33.4473 29.6578 29.6575 33.4469 24.9998 33.4469Z" fill="white"/>
<path d="M38.4238 8.35522C37.5691 8.35522 36.7295 8.70125 36.1259 9.30753C35.5193 9.91086 35.1706 10.7508 35.1706 11.6084C35.1706 12.4635 35.5196 13.3031 36.1259 13.9094C36.7292 14.5127 37.5691 14.8617 38.4238 14.8617C39.2815 14.8617 40.1185 14.5127 40.7247 13.9094C41.331 13.3031 41.6771 12.4632 41.6771 11.6084C41.6771 10.7508 41.331 9.91086 40.7247 9.30753C40.1214 8.70125 39.2815 8.35522 38.4238 8.35522Z" fill="white"/>
</svg>
