<svg width="31" height="31" viewBox="0 0 31 31" fill="none" xmlns="http://www.w3.org/2000/svg">
<path d="M27.2567 25.2672C28.8275 23.3773 29.92 21.1369 30.4417 18.7355C30.9635 16.3341 30.8992 13.8424 30.2543 11.4711C29.6095 9.09978 28.4029 6.91868 26.7368 5.1123C25.0707 3.30591 22.994 1.92738 20.6825 1.09332C18.3709 0.259262 15.8925 -0.00579169 13.4568 0.320583C11.0212 0.646958 8.69996 1.55516 6.68954 2.96836C4.67911 4.38156 3.03863 6.25818 1.90687 8.43948C0.775104 10.6208 0.185353 13.0426 0.187506 15.5C0.188332 19.0724 1.44723 22.5304 3.74329 25.2672L3.72141 25.2858C3.79798 25.3776 3.88548 25.4564 3.96423 25.5472C4.06266 25.6598 4.16876 25.7659 4.27048 25.8753C4.57673 26.2078 4.89173 26.5272 5.22204 26.8269C5.32266 26.9187 5.42657 27.0041 5.52829 27.0916C5.87829 27.3934 6.23813 27.68 6.6111 27.9469C6.65923 27.9797 6.70298 28.0223 6.7511 28.0562V28.0431C9.31278 29.8458 12.3687 30.8133 15.5011 30.8133C18.6335 30.8133 21.6894 29.8458 24.2511 28.0431V28.0562C24.2992 28.0223 24.3419 27.9797 24.3911 27.9469C24.763 27.6789 25.1239 27.3934 25.4739 27.0916C25.5756 27.0041 25.6795 26.9176 25.7802 26.8269C26.1105 26.5261 26.4255 26.2078 26.7317 25.8753C26.8334 25.7659 26.9384 25.6598 27.038 25.5472C27.1156 25.4564 27.2042 25.3776 27.2808 25.2847L27.2567 25.2672ZM15.5 6.74999C16.4735 6.74999 17.4251 7.03866 18.2345 7.57948C19.0439 8.1203 19.6747 8.88899 20.0472 9.78835C20.4198 10.6877 20.5172 11.6773 20.3273 12.6321C20.1374 13.5868 19.6686 14.4638 18.9803 15.1522C18.292 15.8405 17.415 16.3093 16.4602 16.4992C15.5055 16.6891 14.5158 16.5916 13.6165 16.2191C12.7171 15.8466 11.9484 15.2157 11.4076 14.4063C10.8668 13.5969 10.5781 12.6453 10.5781 11.6719C10.5781 10.3665 11.0967 9.11461 12.0197 8.19158C12.9427 7.26855 14.1946 6.74999 15.5 6.74999ZM6.75766 25.2672C6.77664 23.8311 7.36026 22.4601 8.38227 21.451C9.40429 20.4419 10.7825 19.8757 12.2188 19.875H18.7813C20.2175 19.8757 21.5957 20.4419 22.6177 21.451C23.6398 22.4601 24.2234 23.8311 24.2424 25.2672C21.8436 27.4288 18.729 28.6251 15.5 28.6251C12.271 28.6251 9.15643 27.4288 6.75766 25.2672Z" fill="white"/>
</svg>
