<svg width="52" height="43" viewBox="0 0 52 43" fill="none" xmlns="http://www.w3.org/2000/svg">
<path d="M52 5.68438C48.729 5.83514 48.8004 5.82284 48.4306 5.85378L50.3679 0.321404C50.3679 0.321404 44.3209 2.54586 42.788 2.94378C38.762 -0.674781 32.7777 -0.834663 28.4994 1.79485C24.9959 3.94869 23.1154 7.64739 23.7426 11.9705C16.924 11.0243 11.179 7.7922 6.64322 2.34353L5.20865 0.620538L4.13669 2.5891C2.78186 5.07659 2.33197 7.92074 2.86954 10.5975C3.09012 11.6956 3.46503 12.743 3.98434 13.7237L2.75369 13.2468L2.6077 15.3031C2.45972 17.3918 3.15518 19.8301 4.46835 21.8249C4.8381 22.3867 5.31418 23.0036 5.9176 23.6121L5.28165 23.5146L6.05765 25.8707C7.07764 28.9664 9.19617 31.3614 11.9455 32.6929C9.19974 33.8581 6.98163 34.6015 3.33569 35.8008L0 36.8974L3.08099 38.5819C4.25571 39.2242 8.40668 41.3693 12.5081 42.0128C21.6249 43.4426 31.8894 42.2782 38.7997 36.0547C44.6201 30.8128 46.5299 23.3563 46.1332 15.5966C46.0733 14.4219 46.395 13.3008 47.0393 12.4403C48.3299 10.7173 51.9921 5.69589 52 5.68438ZM44.603 10.6153C43.533 12.0439 42.997 13.8685 43.093 15.7522C43.4933 23.5792 41.3637 29.6492 36.7628 33.7926C31.3884 38.6331 22.7195 40.533 12.9798 39.0052C11.2159 38.7287 9.39294 38.1094 7.88419 37.4909C10.941 36.4392 13.3015 35.5017 17.1137 33.6974L22.4354 31.1786L16.5598 30.8025C13.7455 30.6223 11.402 29.2584 9.96146 27.0438C10.7263 26.9994 11.4639 26.8756 12.1982 26.6709L17.802 25.1102L12.1514 23.7264C9.40564 23.0539 7.84055 21.4111 7.01099 20.1511C6.46628 19.3231 6.11041 18.4749 5.89697 17.693C6.4635 17.8449 7.12405 17.9532 8.18927 18.0587L13.4193 18.5761L9.27551 15.3435C6.28973 13.0147 5.0932 9.51598 5.97037 6.15252C15.2887 15.8176 26.2297 15.0912 27.331 15.3467C27.0886 12.9921 27.0823 12.9866 27.0188 12.7624C25.6084 7.77673 28.6993 5.2452 30.0934 4.38827C33.0054 2.59863 37.6277 2.32885 40.8293 5.27734C41.5208 5.91369 42.4559 6.16403 43.3311 5.94662C44.1166 5.75143 44.7613 5.54473 45.3925 5.31979L44.0785 9.07205L45.7559 9.07324C45.4393 9.49774 45.0596 10.0059 44.603 10.6153Z" fill="white"/>
</svg>
